<mxfile host="app.diagrams.net" modified="2023-10-07T20:47:11.846Z" agent="Mozilla/5.0 (Windows NT 10.0; Win64; x64) AppleWebKit/537.36 (KHTML, like Gecko) Chrome/117.0.0.0 Safari/537.36" etag="r1WuIzdfgxQh3v6DVh_q" version="22.0.0" type="device">
  <diagram id="C5RBs43oDa-KdzZeNtuy" name="Page-1">
    <mxGraphModel dx="704" dy="629" grid="1" gridSize="10" guides="1" tooltips="1" connect="1" arrows="1" fold="1" page="1" pageScale="1" pageWidth="827" pageHeight="1169" math="0" shadow="0">
      <root>
        <mxCell id="WIyWlLk6GJQsqaUBKTNV-0" />
        <mxCell id="WIyWlLk6GJQsqaUBKTNV-1" parent="WIyWlLk6GJQsqaUBKTNV-0" />
        <mxCell id="CooWKckBzc2gVY3pO_Cs-5" value="Home" style="swimlane;fontStyle=1;align=center;verticalAlign=middle;childLayout=stackLayout;horizontal=1;startSize=29;horizontalStack=0;resizeParent=1;resizeParentMax=0;resizeLast=0;collapsible=0;marginBottom=0;html=1;whiteSpace=wrap;" vertex="1" parent="WIyWlLk6GJQsqaUBKTNV-1">
          <mxGeometry x="40" y="280" width="140" height="110" as="geometry" />
        </mxCell>
        <mxCell id="CooWKckBzc2gVY3pO_Cs-7" value="SearchResults&lt;br&gt;child" style="text;html=1;strokeColor=none;fillColor=none;align=left;verticalAlign=middle;spacingLeft=4;spacingRight=4;overflow=hidden;rotatable=0;points=[[0,0.5],[1,0.5]];portConstraint=eastwest;whiteSpace=wrap;" vertex="1" parent="CooWKckBzc2gVY3pO_Cs-5">
          <mxGeometry y="29" width="140" height="41" as="geometry" />
        </mxCell>
        <mxCell id="CooWKckBzc2gVY3pO_Cs-18" value="SearchTagBar&lt;br&gt;child" style="text;html=1;strokeColor=none;fillColor=none;align=left;verticalAlign=middle;spacingLeft=4;spacingRight=4;overflow=hidden;rotatable=0;points=[[0,0.5],[1,0.5]];portConstraint=eastwest;whiteSpace=wrap;" vertex="1" parent="CooWKckBzc2gVY3pO_Cs-5">
          <mxGeometry y="70" width="140" height="40" as="geometry" />
        </mxCell>
        <mxCell id="CooWKckBzc2gVY3pO_Cs-8" value="SearchResults" style="swimlane;fontStyle=1;align=center;verticalAlign=middle;childLayout=stackLayout;horizontal=1;startSize=29;horizontalStack=0;resizeParent=1;resizeParentMax=0;resizeLast=0;collapsible=0;marginBottom=0;html=1;whiteSpace=wrap;" vertex="1" parent="WIyWlLk6GJQsqaUBKTNV-1">
          <mxGeometry x="360" y="280" width="140" height="110" as="geometry" />
        </mxCell>
        <mxCell id="CooWKckBzc2gVY3pO_Cs-10" value="List&amp;lt;SearchResult&amp;gt; children" style="text;html=1;strokeColor=none;fillColor=none;align=left;verticalAlign=middle;spacingLeft=4;spacingRight=4;overflow=hidden;rotatable=0;points=[[0,0.5],[1,0.5]];portConstraint=eastwest;whiteSpace=wrap;" vertex="1" parent="CooWKckBzc2gVY3pO_Cs-8">
          <mxGeometry y="29" width="140" height="41" as="geometry" />
        </mxCell>
        <mxCell id="CooWKckBzc2gVY3pO_Cs-17" value="SearchResult &lt;br&gt;child" style="text;html=1;strokeColor=none;fillColor=none;align=left;verticalAlign=middle;spacingLeft=4;spacingRight=4;overflow=hidden;rotatable=0;points=[[0,0.5],[1,0.5]];portConstraint=eastwest;whiteSpace=wrap;" vertex="1" parent="CooWKckBzc2gVY3pO_Cs-8">
          <mxGeometry y="70" width="140" height="40" as="geometry" />
        </mxCell>
        <mxCell id="CooWKckBzc2gVY3pO_Cs-13" value="SearchResults" style="swimlane;fontStyle=1;align=center;verticalAlign=middle;childLayout=stackLayout;horizontal=1;startSize=29;horizontalStack=0;resizeParent=1;resizeParentMax=0;resizeLast=0;collapsible=0;marginBottom=0;html=1;whiteSpace=wrap;" vertex="1" parent="WIyWlLk6GJQsqaUBKTNV-1">
          <mxGeometry x="600" y="280" width="140" height="110" as="geometry" />
        </mxCell>
        <mxCell id="CooWKckBzc2gVY3pO_Cs-15" value="String&lt;br&gt;name" style="text;html=1;strokeColor=none;fillColor=none;align=left;verticalAlign=middle;spacingLeft=4;spacingRight=4;overflow=hidden;rotatable=0;points=[[0,0.5],[1,0.5]];portConstraint=eastwest;whiteSpace=wrap;" vertex="1" parent="CooWKckBzc2gVY3pO_Cs-13">
          <mxGeometry y="29" width="140" height="41" as="geometry" />
        </mxCell>
        <mxCell id="CooWKckBzc2gVY3pO_Cs-14" value="Data&lt;br&gt;data" style="text;html=1;strokeColor=none;fillColor=none;align=left;verticalAlign=middle;spacingLeft=4;spacingRight=4;overflow=hidden;rotatable=0;points=[[0,0.5],[1,0.5]];portConstraint=eastwest;whiteSpace=wrap;" vertex="1" parent="CooWKckBzc2gVY3pO_Cs-13">
          <mxGeometry y="70" width="140" height="40" as="geometry" />
        </mxCell>
        <mxCell id="CooWKckBzc2gVY3pO_Cs-20" value="SearchTagBar" style="swimlane;fontStyle=1;align=center;verticalAlign=middle;childLayout=stackLayout;horizontal=1;startSize=29;horizontalStack=0;resizeParent=1;resizeParentMax=0;resizeLast=0;collapsible=0;marginBottom=0;html=1;whiteSpace=wrap;" vertex="1" parent="WIyWlLk6GJQsqaUBKTNV-1">
          <mxGeometry x="360" y="440" width="140" height="95" as="geometry" />
        </mxCell>
        <mxCell id="CooWKckBzc2gVY3pO_Cs-21" value="List&amp;lt;SearchResult&amp;gt; children" style="text;html=1;strokeColor=none;fillColor=none;align=left;verticalAlign=middle;spacingLeft=4;spacingRight=4;overflow=hidden;rotatable=0;points=[[0,0.5],[1,0.5]];portConstraint=eastwest;whiteSpace=wrap;" vertex="1" parent="CooWKckBzc2gVY3pO_Cs-20">
          <mxGeometry y="29" width="140" height="41" as="geometry" />
        </mxCell>
        <mxCell id="CooWKckBzc2gVY3pO_Cs-22" value="Search&lt;br&gt;" style="text;html=1;strokeColor=none;fillColor=none;align=left;verticalAlign=middle;spacingLeft=4;spacingRight=4;overflow=hidden;rotatable=0;points=[[0,0.5],[1,0.5]];portConstraint=eastwest;whiteSpace=wrap;" vertex="1" parent="CooWKckBzc2gVY3pO_Cs-20">
          <mxGeometry y="70" width="140" height="25" as="geometry" />
        </mxCell>
        <mxCell id="CooWKckBzc2gVY3pO_Cs-19" style="edgeStyle=entityRelationEdgeStyle;rounded=0;orthogonalLoop=1;jettySize=auto;html=1;entryX=0;entryY=0.25;entryDx=0;entryDy=0;" edge="1" parent="WIyWlLk6GJQsqaUBKTNV-1" source="CooWKckBzc2gVY3pO_Cs-18" target="CooWKckBzc2gVY3pO_Cs-20">
          <mxGeometry relative="1" as="geometry">
            <mxPoint x="250" y="430" as="targetPoint" />
          </mxGeometry>
        </mxCell>
        <mxCell id="CooWKckBzc2gVY3pO_Cs-23" style="edgeStyle=entityRelationEdgeStyle;rounded=0;orthogonalLoop=1;jettySize=auto;html=1;entryX=-0.016;entryY=0.19;entryDx=0;entryDy=0;entryPerimeter=0;" edge="1" parent="WIyWlLk6GJQsqaUBKTNV-1" source="CooWKckBzc2gVY3pO_Cs-7" target="CooWKckBzc2gVY3pO_Cs-8">
          <mxGeometry relative="1" as="geometry" />
        </mxCell>
        <mxCell id="CooWKckBzc2gVY3pO_Cs-24" style="edgeStyle=entityRelationEdgeStyle;rounded=0;orthogonalLoop=1;jettySize=auto;html=1;entryX=0;entryY=0.25;entryDx=0;entryDy=0;" edge="1" parent="WIyWlLk6GJQsqaUBKTNV-1" source="CooWKckBzc2gVY3pO_Cs-10" target="CooWKckBzc2gVY3pO_Cs-13">
          <mxGeometry relative="1" as="geometry" />
        </mxCell>
      </root>
    </mxGraphModel>
  </diagram>
</mxfile>
